<svg xmlns="http://www.w3.org/2000/svg" width="226.265" height="230.51" viewBox="0 0 226.265 230.51">
  <g id="Group_50" data-name="Group 50" transform="translate(0 3.229)" opacity="0.54">
    <path id="Path_171" data-name="Path 171" d="M302.38,257.137a1.967,1.967,0,0,0-1.362,2.422l32.849,117.313a1.967,1.967,0,0,0,2.422,1.362l121.1-33.908a1.967,1.967,0,0,0,1.362-2.422L425.9,224.592a1.967,1.967,0,0,0-2.422-1.362Z" transform="translate(-300.944 -207.57)" fill="#e6e6e6"/>
    <path id="Path_172" data-name="Path 172" d="M345.3,380.19l115.4-32.312L429.449,236.264l-115.4,32.312Z" transform="translate(-308.439 -215.065)" fill="#fff"/>
    <path id="Path_173" data-name="Path 173" d="M348.525,326.812c-.77.216-1.087,1.494-.708,2.851s1.315,2.284,2.085,2.069l52.631-14.737c.77-.216,1.087-1.494.708-2.851s-1.315-2.284-2.085-2.069Z" transform="translate(-327.655 -258.398)" fill="#e6e6e6"/>
    <path id="Path_174" data-name="Path 174" d="M358.423,362.164c-.77.216-1.087,1.495-.708,2.851s1.315,2.284,2.085,2.069l52.631-14.737c.77-.216,1.087-1.495.708-2.851s-1.315-2.284-2.085-2.069Z" transform="translate(-333.315 -278.612)" fill="#e6e6e6"/>
    <path id="Path_175" data-name="Path 175" d="M368.208,397.108c-.77.216-1.087,1.495-.708,2.851s1.315,2.284,2.085,2.069l52.631-14.737c.77-.216,1.087-1.494.708-2.851s-1.315-2.284-2.085-2.069Z" transform="translate(-338.91 -298.594)" fill="#e6e6e6"/>
    <path id="Path_176" data-name="Path 176" d="M378.107,432.46c-.77.216-1.087,1.494-.708,2.851s1.315,2.284,2.085,2.069l52.631-14.737c.77-.216,1.087-1.495.708-2.851s-1.315-2.284-2.085-2.069Z" transform="translate(-344.571 -318.809)" fill="#e6e6e6"/>
    <path id="Path_177" data-name="Path 177" d="M532.488,291.251a2.554,2.554,0,0,0,1.378,4.92l9.839-2.755a2.554,2.554,0,1,0-1.378-4.92Z" transform="translate(-432.277 -244.878)" fill="#e6e6e6"/>
    <path id="Path_178" data-name="Path 178" d="M542.195,325.918a2.554,2.554,0,0,0,1.378,4.92l9.839-2.755a2.554,2.554,0,1,0-1.378-4.92Z" transform="translate(-437.828 -264.701)" fill="#e6e6e6"/>
    <path id="Path_179" data-name="Path 179" d="M551.9,360.585a2.554,2.554,0,1,0,1.378,4.92l9.839-2.755a2.554,2.554,0,0,0-1.378-4.92Z" transform="translate(-443.379 -284.524)" fill="#e6e6e6"/>
    <path id="Path_180" data-name="Path 180" d="M561.609,395.251a2.554,2.554,0,1,0,1.377,4.92l9.839-2.755a2.554,2.554,0,0,0-1.378-4.92Z" transform="translate(-448.929 -304.347)" fill="#e6e6e6"/>
    <path id="Path_181" data-name="Path 181" d="M570.2,454.3a3.255,3.255,0,0,0,1.755,6.269l12.537-3.51a3.255,3.255,0,0,0-1.755-6.269h0Z" transform="translate(-453.549 -337.663)" fill="#6c63ff"/>
    <rect id="Rectangle_50" data-name="Rectangle 50" width="96.341" height="0.856" transform="matrix(0.963, -0.27, 0.27, 0.963, 36.78, 129.95)" fill="#e6e6e6"/>
    <path id="Path_182" data-name="Path 182" d="M496.271,467.746l-7.441,1.8L478.352,441.7l10.982-2.655Z" transform="translate(-273.529 -252.901)" fill="#a0616a"/>
    <path id="Path_183" data-name="Path 183" d="M773.367,697.252l-.05-.208a9.52,9.52,0,0,1,7.008-11.478l14.558-3.519,2.285,9.451Z" transform="translate(-570.902 -469.971)" fill="#2f2e41"/>
    <path id="Path_184" data-name="Path 184" d="M428.19,478.479h-7.655l-3.642-29.526h11.3Z" transform="translate(-238.387 -258.565)" fill="#a0616a"/>
    <path id="Path_185" data-name="Path 185" d="M715.851,704.468H691.365v-.214a9.509,9.509,0,0,1,9.509-9.509h14.978Z" transform="translate(-524.193 -477.232)" fill="#2f2e41"/>
    <path id="Path_186" data-name="Path 186" d="M707.9,547.538l-7.432-88.579,30.768-5.671.122-.022,9.005,5.789-3.134,32.6,14.432,50.825L739.2,545.758l-14.455-47.137-3.308-14.334-1.7,18.626L721,548.848Z" transform="translate(-529.397 -339.15)" fill="#2f2e41"/>
    <path id="Path_187" data-name="Path 187" d="M698.132,358.778l-.081-.1,10.632-80.052.014-.1.075-.075c.157-.157,3.882-3.838,7.713-3.838.554,0,1.081-.014,1.586-.027,2.932-.076,5.248-.137,8,2.616,2.8,2.8,11.955,13.044,11.955,27.069,0,13.575,1.236,55.762,1.249,56.186l.018.6-.5-.325c-.123-.079-12.43-7.916-22.752-.631a14.849,14.849,0,0,1-8.6,3.075A12.772,12.772,0,0,1,698.132,358.778Z" transform="translate(-528.016 -236.961)" fill="#6c63ff"/>
    <circle id="Ellipse_59" data-name="Ellipse 59" cx="15.336" cy="15.336" r="15.336" transform="translate(166.028 11.482) rotate(-28.663)" fill="#a0616a"/>
    <path id="Path_188" data-name="Path 188" d="M668.837,471.152a6.279,6.279,0,0,0,.364-9.621l8.709-20.543-11.4,2.1-6.522,19.186a6.313,6.313,0,0,0,8.852,8.879Z" transform="translate(-505.472 -332.13)" fill="#a0616a"/>
    <path id="Path_189" data-name="Path 189" d="M662.824,366.372l2.8-5.921a1.153,1.153,0,0,1-.414-.429c-2.62-4.541,13.206-42.25,14.261-44.751-.161-1.36-1.822-15.776-.608-20.635,1.43-5.72,4.366-8.386,9.818-8.914,6.012-.565,7.634,7.6,7.65,7.683l.005,20.99-6.9,24.162-15.737,32.1Z" transform="translate(-507.873 -243.33)" fill="#6c63ff"/>
    <path id="Path_190" data-name="Path 190" d="M716.662,207.651c-1.838.239-3.225-1.642-3.868-3.38s-1.133-3.763-2.732-4.7c-2.184-1.283-4.978.26-7.475-.163-2.82-.478-4.654-3.467-4.8-6.323s.993-5.6,2.109-8.238l.389,3.273a6.491,6.491,0,0,1,2.836-5.674l-.5,4.8a5.1,5.1,0,0,1,5.865-4.218l-.079,2.862a47.269,47.269,0,0,1,9.809-.48,15.865,15.865,0,0,1,9.032,3.48c3.7,3.218,5.056,8.517,4.6,13.4s-2.471,9.475-4.573,13.908c-.529,1.115-1.26,2.374-2.487,2.516a2.5,2.5,0,0,1-2.453-1.848,6.7,6.7,0,0,1,.03-3.291,14,14,0,0,0,.409-4.98,4.059,4.059,0,0,0-3.142-3.483c-1.663-.2-3.365,1.7-2.566,3.172Z" transform="translate(-527.86 -184.29)" fill="#2f2e41"/>
  </g>
</svg>
