<svg xmlns="http://www.w3.org/2000/svg" width="1392.998" height="1110.265" viewBox="0 0 1392.998 1110.265">
  <g id="Group_32" data-name="Group 32" transform="translate(0.505 1.765)" opacity="0.71">
    <rect id="Rectangle_15" data-name="Rectangle 15" width="9.876" height="108.636" transform="translate(315.451 378.717)" fill="#f2f2f2" stroke="#707070" stroke-width="1"/>
    <path id="Path_7" data-name="Path 7" d="M462.552,758.933H73.438l.435-45.208.04-3.931,3.476-353.8H460.577l.494,102.209.02,3.931Z" transform="translate(71.622 347.163)" fill="#e6e6e6" stroke="#707070" stroke-width="1"/>
    <path id="Path_8" data-name="Path 8" d="M802.644,407.556l62.962-106.738a20,20,0,0,0-6.876-27.208h0a20,20,0,0,0-28.006,7.635l-62,112.879-40.567,67a17.455,17.455,0,1,0,14.929,16.7Z" transform="translate(201.491 -70.85)" fill="#a0616a" stroke="#707070" stroke-width="1"/>
    <path id="Path_9" data-name="Path 9" d="M819.136,341.4h0a5.9,5.9,0,0,0,4.54-5.524,7.653,7.653,0,0,1,1.669-4.359,7.066,7.066,0,0,1,.631-.674,11.541,11.541,0,0,0,3.779-9.978c-.81-6.06,1.379-13.087,4.063-18.89,2.937-6.35,6.262-12.636,7.594-19.505,1.921-9.908-1-21.649-13.208-24.588a23.23,23.23,0,0,0-15.451,1.878c-10.063,4.852-16.209,14.5-22,23.8,0,0-13.838,14.4-23.488,21.4,2.52.977,2.211,4.993.12,6.705s-4.993,1.877-7.661,2.3c-3.364.539-7.186,2.078-6.981,6.263a7.272,7.272,0,0,0,2.738,5.143,137.438,137.438,0,0,0,49.775,26.205c4.047,1.155,8.585,2.077,12.306.111S822.729,343.595,819.136,341.4Z" transform="translate(244.938 -83.9)" fill="#6c63ff" stroke="#707070" stroke-width="1"/>
    <path id="Path_10" data-name="Path 10" d="M652.666,272.912l-128.388-1.975-3.95-29.628,11.851-67.157H632.914Z" transform="translate(507.429 169.833)" fill="#a0616a" stroke="#707070" stroke-width="1"/>
    <path id="Path_11" data-name="Path 11" d="M515.956,580.5h-21.8L483.778,496.4h32.178Z" transform="translate(471.785 484.094)" fill="#a0616a" stroke="#707070" stroke-width="1"/>
    <path id="Path_12" data-name="Path 12" d="M791.232,754.674H775.6l-2.791-14.761-7.147,14.761H724.193a9.321,9.321,0,0,1-5.3-16.992l33.114-22.87V699.888l34.83,2.079Z" transform="translate(208.015 347.691)" fill="#2f2e41" stroke="#707070" stroke-width="1"/>
    <path id="Path_13" data-name="Path 13" d="M686.127,537.2l-17.883,12.469-56.609-63.044,26.395-18.4Z" transform="translate(596.47 456.612)" fill="#a0616a" stroke="#707070" stroke-width="1"/>
    <path id="Path_14" data-name="Path 14" d="M947.087,705.129l-12.825,8.942L923.531,703.56l2.58,16.2L892.1,743.474a9.322,9.322,0,0,1-14.064-10.909l14.082-37.7-8.535-12.241,29.76-18.217Z" transform="translate(366.554 313.09)" fill="#2f2e41" stroke="#707070" stroke-width="1"/>
    <path id="Path_15" data-name="Path 15" d="M1637.278,732.493,249.983,733.1a2.352,2.352,0,0,1,0-4.7l1387.295-.607a2.352,2.352,0,1,1,0,4.7Z" transform="translate(-247.637 374.9)" fill="#cacaca" stroke="#707070" stroke-width="1"/>
    <rect id="Rectangle_16" data-name="Rectangle 16" width="425.651" height="46.947" transform="translate(124.313 662.45)" fill="#e6e6e6" stroke="#707070" stroke-width="1"/>
    <path id="Path_16" data-name="Path 16" d="M479.648,483.437l-1.441-5.057h.324a3.371,3.371,0,0,0,0-6.743,100.3,100.3,0,0,0-46.356,0,3.369,3.369,0,1,0-.04,6.739l-1.371,5.061c-10.636,14.787-5.433,39.35,0,64.055h48.884C485.792,520.565,490.446,494.992,479.648,483.437Z" transform="translate(-75.07 122.453)" fill="#e6e6e6" stroke="#707070" stroke-width="1"/>
    <circle id="Ellipse_3" data-name="Ellipse 3" cx="13.485" cy="13.485" r="13.485" transform="translate(366.797 618.533)" fill="#fff" stroke="#707070" stroke-width="1"/>
    <path id="Path_17" data-name="Path 17" d="M498.319,446.906l-1.441-5.057h.324a3.371,3.371,0,1,0,0-6.743,100.3,100.3,0,0,0-46.356,0,3.369,3.369,0,0,0-.04,6.739l-1.371,5.061c-10.636,14.787-5.433,39.35,0,64.055h48.884C504.463,484.034,509.117,458.461,498.319,446.906Z" transform="translate(-56.862 86.828)" fill="#e6e6e6" stroke="#707070" stroke-width="1"/>
    <circle id="Ellipse_4" data-name="Ellipse 4" cx="13.485" cy="13.485" r="13.485" transform="translate(403.676 546.377)" fill="#fff" stroke="#707070" stroke-width="1"/>
    <path id="Path_18" data-name="Path 18" d="M462.319,446.906l-1.441-5.057h.324a3.371,3.371,0,0,0,0-6.743,100.3,100.3,0,0,0-46.356,0,3.369,3.369,0,1,0-.04,6.739l-1.371,5.061c-10.636,14.787-5.433,39.35,0,64.055h48.884C468.463,484.034,473.117,458.461,462.319,446.906Z" transform="translate(-91.969 86.828)" fill="#e6e6e6" stroke="#707070" stroke-width="1"/>
    <circle id="Ellipse_5" data-name="Ellipse 5" cx="13.485" cy="13.485" r="13.485" transform="translate(332.569 546.377)" fill="#fff" stroke="#707070" stroke-width="1"/>
    <path id="Path_19" data-name="Path 19" d="M446.319,411.906l-1.441-5.057h.324a3.371,3.371,0,0,0,0-6.743,100.3,100.3,0,0,0-46.356,0,3.369,3.369,0,0,0-.04,6.739l-1.371,5.061c-10.636,14.787-5.433,39.35,0,64.055h48.884C452.463,449.034,457.117,423.461,446.319,411.906Z" transform="translate(-107.572 52.696)" fill="#e6e6e6" stroke="#707070" stroke-width="1"/>
    <circle id="Ellipse_6" data-name="Ellipse 6" cx="13.485" cy="13.485" r="13.485" transform="translate(300.966 477.245)" fill="#fff" stroke="#707070" stroke-width="1"/>
    <path id="Path_20" data-name="Path 20" d="M482.319,411.906l-1.441-5.057h.324a3.371,3.371,0,1,0,0-6.743,100.3,100.3,0,0,0-46.356,0,3.369,3.369,0,1,0-.04,6.739l-1.371,5.061c-10.636,14.787-5.433,39.35,0,64.055h48.884C488.463,449.034,493.117,423.461,482.319,411.906Z" transform="translate(-72.465 52.696)" fill="#e6e6e6" stroke="#707070" stroke-width="1"/>
    <circle id="Ellipse_7" data-name="Ellipse 7" cx="13.485" cy="13.485" r="13.485" transform="translate(372.073 477.245)" fill="#fff" stroke="#707070" stroke-width="1"/>
    <path id="Path_21" data-name="Path 21" d="M425.319,446.906l-1.441-5.057h.324a3.371,3.371,0,1,0,0-6.743,100.3,100.3,0,0,0-46.356,0,3.369,3.369,0,0,0-.04,6.739l-1.371,5.061c-10.636,14.787-5.433,39.35,0,64.055h48.884C431.463,484.034,436.117,458.461,425.319,446.906Z" transform="translate(-128.051 86.828)" fill="#e6e6e6" stroke="#707070" stroke-width="1"/>
    <circle id="Ellipse_8" data-name="Ellipse 8" cx="13.485" cy="13.485" r="13.485" transform="translate(259.487 546.377)" fill="#fff" stroke="#707070" stroke-width="1"/>
    <path id="Path_22" data-name="Path 22" d="M754.318,347.906l-1.441-5.057h.324a3.371,3.371,0,1,0,0-6.743,100.3,100.3,0,0,0-46.356,0,3.369,3.369,0,1,0-.04,6.739l-1.371,5.061c-10.636,14.787-5.433,39.35,0,64.055h48.884C760.463,385.034,765.117,359.461,754.318,347.906Z" transform="translate(192.789 -9.717)" fill="#ccc" stroke="#707070" stroke-width="1"/>
    <circle id="Ellipse_9" data-name="Ellipse 9" cx="13.485" cy="13.485" r="13.485" transform="translate(909.327 350.832)" fill="#fff" stroke="#707070" stroke-width="1"/>
    <path id="Path_23" data-name="Path 23" d="M405.774,483.437l-1.442-5.056h.324a3.371,3.371,0,0,0,0-6.743,100.3,100.3,0,0,0-46.356,0,3.369,3.369,0,1,0-.04,6.739l-1.371,5.061c-10.636,14.787-5.433,39.35,0,64.055h48.884C411.919,520.565,416.572,494.992,405.774,483.437Z" transform="translate(-147.112 122.453)" fill="#e6e6e6" stroke="#707070" stroke-width="1"/>
    <circle id="Ellipse_10" data-name="Ellipse 10" cx="13.485" cy="13.485" r="13.485" transform="translate(220.881 618.533)" fill="#fff" stroke="#707070" stroke-width="1"/>
    <path id="Path_24" data-name="Path 24" d="M442.774,483.437l-1.442-5.056h.324a3.371,3.371,0,0,0,0-6.743,100.3,100.3,0,0,0-46.356,0,3.369,3.369,0,1,0-.04,6.739l-1.371,5.061c-10.636,14.787-5.433,39.35,0,64.055h48.884C448.919,520.565,453.572,494.992,442.774,483.437Z" transform="translate(-111.029 122.453)" fill="#e6e6e6" stroke="#707070" stroke-width="1"/>
    <circle id="Ellipse_11" data-name="Ellipse 11" cx="13.485" cy="13.485" r="13.485" transform="translate(293.964 618.533)" fill="#fff" stroke="#707070" stroke-width="1"/>
    <path id="Path_25" data-name="Path 25" d="M518.614,483.437l-1.441-5.057h.324a3.371,3.371,0,0,0,0-6.743,100.3,100.3,0,0,0-46.356,0,3.369,3.369,0,1,0-.04,6.739l-1.371,5.061c-10.636,14.787-5.433,39.35,0,64.055h48.884C524.758,520.565,529.412,494.992,518.614,483.437Z" transform="translate(-37.07 122.453)" fill="#e6e6e6" stroke="#707070" stroke-width="1"/>
    <circle id="Ellipse_12" data-name="Ellipse 12" cx="13.485" cy="13.485" r="13.485" transform="translate(443.763 618.533)" fill="#fff" stroke="#707070" stroke-width="1"/>
    <path id="Path_26" data-name="Path 26" d="M939.457,384.772l-134.076-9.034s-31.066,71.763-30.568,81.248,13.317,6.628-.006,20.9-13.323-5.485-13.323,14.267-53.865,458.246-30.162,462.2c41.479,5.926,39.5-1.975,39.5-1.975l65.089-203.926S953.434,920.25,990.073,910.891s29.628-21.727,29.628-21.727L941.2,729.816s-11.7-.022-10.054-13.171-8.339-10.924-8.339-10.924-15-4.676-9.419-12.339-9.233-12.1-9.233-12.1l43.236-165.5S978.179,444.3,939.457,384.772Z" transform="translate(218.181 31.58)" fill="#2f2e41" stroke="#707070" stroke-width="1"/>
    <path id="Path_27" data-name="Path 27" d="M895.49,241.721l-46.147,2.338-15.405,25.954s-43.9,3.219-43.9,38.772-29.963,20.082-15.969,65.346,17.182,53.99,4.724,60.491-30.039,5.1-14.335,15.677,21.629,14.526,17.679,18.477,73.222-27.13,117.594-7.639c0,0,12.413-9.4,9.628-17.668s-4.3-5.073.407-12.6,54.685-138.4,54.685-138.4-10.146-18.863-32.036-18.063S895.49,241.721,895.49,241.721Z" transform="translate(250.322 -99.114)" fill="#6c63ff" stroke="#707070" stroke-width="1"/>
    <path id="Path_28" data-name="Path 28" d="M983.7,533.244l-81.594,44.279L839.457,462.077A46.417,46.417,0,0,1,921.051,417.8ZM903.7,572.167l74.65-40.511L917.579,419.682a42.467,42.467,0,0,0-74.65,40.511Z" transform="translate(324.022 48.912)" fill="#3f3d56" stroke="#707070" stroke-width="1"/>
    <path id="Path_29" data-name="Path 29" d="M1055.739,574.95,935.547,640.176a15.488,15.488,0,0,1-18.171-2.446l-81.162-77.908a15.54,15.54,0,0,1,3.349-24.868l180.267-97.827a15.539,15.539,0,0,1,22.675,10.745l21.088,110.51A15.488,15.488,0,0,1,1055.739,574.95Z" transform="translate(321.688 89.611)" fill="#6c63ff" stroke="#707070" stroke-width="1"/>
    <rect id="Rectangle_17" data-name="Rectangle 17" width="13.826" height="23.702" transform="matrix(0.879, -0.477, 0.477, 0.879, 1239.703, 583.122)" fill="#3f3d56" stroke="#707070" stroke-width="1"/>
    <path id="Path_30" data-name="Path 30" d="M887.686,417.687l-3.528-123.873a20,20,0,0,0-20.305-19.371h0a20,20,0,0,0-19.643,21.373l7.61,128.562,1.331,78.314a17.455,17.455,0,1,0,21.529,6.191Z" transform="translate(332.732 -67.206)" fill="#a0616a" stroke="#707070" stroke-width="1"/>
    <path id="Path_31" data-name="Path 31" d="M903.648,334.661h0a5.9,5.9,0,0,0,.9-7.093,7.654,7.654,0,0,1-.908-4.579,7.064,7.064,0,0,1,.176-.907,11.54,11.54,0,0,0-2.113-10.459c-3.912-4.7-5.8-11.812-6.618-18.154-.895-6.939-1.427-14.031-3.956-20.554-3.649-9.41-12.369-17.8-24.271-13.782a23.231,23.231,0,0,0-12.08,9.816c-5.935,9.464-6,20.908-5.956,31.856l-2.135-4.326a88.819,88.819,0,0,1-6.356,34.944c2.653-.515,4.53,3.049,3.672,5.612s-3.227,4.247-5.258,6.03c-2.56,2.247-4.977,5.585-2.575,9.018a7.273,7.273,0,0,0,5.056,2.9,137.437,137.437,0,0,0,56.086-4.317c4.041-1.177,8.373-2.812,10.476-6.458S907.855,334.6,903.648,334.661Z" transform="translate(325.344 -83.136)" fill="#6c63ff" stroke="#707070" stroke-width="1"/>
    <path id="Path_32" data-name="Path 32" d="M910.768,238.328c-2.647,9.8.4,25.223,1.541,34.368,1.225,9.777-15.723,18.527-25.421,19.08a13.8,13.8,0,0,0-2.568-9.086,23.637,23.637,0,0,1-1.9,9.106H801.5c-10.192-19.179-18.863-45.39-9.5-72.49a27.731,27.731,0,0,1,19.16-24l44.126-14.123c17.4,0,38.753,2.469,48.372,15.426a48.541,48.541,0,0,1,7.111,41.716Z" transform="translate(279.327 -158.147)" fill="#2f2e41" stroke="#707070" stroke-width="1"/>
    <circle id="Ellipse_13" data-name="Ellipse 13" cx="45.43" cy="45.43" r="45.43" transform="translate(1070.952 40.816)" fill="#a0616a" stroke="#707070" stroke-width="1"/>
    <path id="Path_33" data-name="Path 33" d="M896.444,234.492v9.876H857.138a14.135,14.135,0,0,0-2.311-11.081,24.081,24.081,0,0,1-2.8,11.081c-22.728,6.721-41.805,6.592-57.437,0a8.752,8.752,0,0,1-8.752-8.752h0c0-30.28,23.868-55.794,54.141-56.418a55.3,55.3,0,0,1,56.47,55.294Z" transform="translate(277.217 -160.098)" fill="#2f2e41" stroke="#707070" stroke-width="1"/>
    <path id="Path_34" data-name="Path 34" d="M860.76,176.994c-4.684-2.191-9.958-3.12-13.653-7.472l1.395,7.372a34.815,34.815,0,0,0-24.79-3.1,13.294,13.294,0,0,0-6.545,3.4,9.79,9.79,0,0,0-2.594,8.058,9.168,9.168,0,0,0,4.1,6.163,17.7,17.7,0,0,0,6.253,2.129l27.428,5.575a20.92,20.92,0,0,0,10.507.335,10.31,10.31,0,0,0,6.941-8.92C870.326,184.239,865.443,179.185,860.76,176.994Z" transform="translate(305.157 -169.522)" fill="#2f2e41" stroke="#707070" stroke-width="1"/>
    <path id="Path_35" data-name="Path 35" d="M588.142,397.46,371.605,467.337a7.656,7.656,0,0,1-9.626-4.929l-27.389-84.876a7.656,7.656,0,0,1,4.929-9.626L556.057,298.03a7.656,7.656,0,0,1,9.626,4.929l27.389,84.876a7.656,7.656,0,0,1-4.929,9.624Z" transform="translate(-163.194 -44.561)" fill="#f2f2f2" stroke="#707070" stroke-width="1"/>
    <path id="Path_36" data-name="Path 36" d="M529.12,402.091,397.456,444.579a38.93,38.93,0,0,1-48.949-25.065L343.3,403.383a38.93,38.93,0,0,1,25.065-48.949l147.795-47.692a38.93,38.93,0,0,1,48.949,25.065A55.9,55.9,0,0,1,529.12,402.091Z" transform="translate(-156.171 -37.537)" fill="#fff" stroke="#707070" stroke-width="1"/>
    <path id="Path_37" data-name="Path 37" d="M452.741,328.2l-87.033,28.083a1.972,1.972,0,1,1-1.211-3.754l87.031-28.084a1.972,1.972,0,0,1,1.211,3.754Z" transform="translate(-135.003 -18.534)" fill="#e6e6e6" stroke="#707070" stroke-width="1"/>
    <path id="Path_38" data-name="Path 38" d="M500.068,331.141l-131.088,42.3a1.972,1.972,0,1,1-1.211-3.754l131.089-42.3a1.972,1.972,0,0,1,1.211,3.754Z" transform="translate(-131.812 -15.666)" fill="#e6e6e6" stroke="#707070" stroke-width="1"/>
    <path id="Path_39" data-name="Path 39" d="M503.341,341.279l-131.09,42.3a1.972,1.972,0,0,1-1.211-3.754l131.088-42.3a1.972,1.972,0,0,1,1.211,3.754Z" transform="translate(-128.622 -5.78)" fill="#e6e6e6" stroke="#707070" stroke-width="1"/>
    <path id="Path_40" data-name="Path 40" d="M503.341,341.279l-131.09,42.3a1.972,1.972,0,0,1-1.211-3.754l131.088-42.3a1.972,1.972,0,0,1,1.211,3.754Z" transform="translate(-128.622 -5.78)" fill="#e6e6e6" stroke="#707070" stroke-width="1"/>
    <circle id="Ellipse_14" data-name="Ellipse 14" cx="22.816" cy="22.816" r="22.816" transform="translate(362.653 243.579)" fill="#6c63ff" stroke="#707070" stroke-width="1"/>
    <path id="Path_41" data-name="Path 41" d="M445.745,318.138a1.973,1.973,0,0,1-1.578-.789l-4.838-6.45a1.972,1.972,0,1,1,3.156-2.367l3.165,4.22,8.129-12.193a1.972,1.972,0,1,1,3.282,2.188l-9.675,14.513a1.973,1.973,0,0,1-1.587.878Z" transform="translate(-61.077 -42.592)" fill="#fff" stroke="#707070" stroke-width="1"/>
  </g>
</svg>
