<svg xmlns="http://www.w3.org/2000/svg" width="375" height="563.128" viewBox="0 0 375 563.128">
  <g id="Group_41" data-name="Group 41" transform="translate(0 0)" opacity="0.65">
    <path id="Path_101" data-name="Path 101" d="M405.165,724.6a1.179,1.179,0,0,0,1.138,1.215H779.02a1.217,1.217,0,0,0,0-2.43H406.31a1.178,1.178,0,0,0-1.145,1.208Z" transform="translate(-405.165 -162.685)" fill="#ccc"/>
    <path id="Path_102" data-name="Path 102" d="M559.865,561.674a40.255,40.255,0,0,1,12.345-.711,1.5,1.5,0,0,0,1.443-1.532,1.521,1.521,0,0,0-1.443-1.531,42.788,42.788,0,0,0-13.112.82,1.545,1.545,0,0,0-1.008,1.884A1.436,1.436,0,0,0,559.865,561.674Z" transform="translate(-410.92 -166.17)" fill="#ccc" opacity="0.5"/>
    <path id="Path_103" data-name="Path 103" d="M456.459,536.577c-7.938-11.2-12.526-23.73-12.677-38.012a3.134,3.134,0,0,1,1.767-3.929l27.058-10.158a2.864,2.864,0,0,1,3.7,1.875l12.677,38.012a3.134,3.134,0,0,1-1.767,3.929l-27.058,10.158A2.864,2.864,0,0,1,456.459,536.577Z" transform="translate(-406.613 -167.714)" fill="#f2f2f2"/>
    <path id="Path_104" data-name="Path 104" d="M462.568,535.691a2.864,2.864,0,0,1-3.7-1.875c-7.938-11.2-12.526-23.73-12.677-38.012a3.219,3.219,0,0,1-.106-1.576l-.532.2a3.134,3.134,0,0,0-1.767,3.929c.15,14.282,4.739,26.81,12.677,38.012a2.864,2.864,0,0,0,3.7,1.875l27.058-10.158a3.025,3.025,0,0,0,1.873-2.353Z" transform="translate(-406.613 -167.505)" opacity="0.2"/>
    <path id="Path_105" data-name="Path 105" d="M475.712,507.02,457.6,513.88a1.138,1.138,0,0,1-1.475-.742,1.245,1.245,0,0,1,.7-1.565l18.114-6.86a1.138,1.138,0,0,1,1.475.742A1.246,1.246,0,0,1,475.712,507.02Z" transform="translate(-407.081 -167.286)" fill="#fff"/>
    <path id="Path_106" data-name="Path 106" d="M459.373,506.067l-3.985,1.509a1.137,1.137,0,0,1-1.477-.737,1.246,1.246,0,0,1,.694-1.567l.007,0,3.985-1.509a1.138,1.138,0,0,1,1.475.741,1.245,1.245,0,0,1-.7,1.565Z" transform="translate(-406.998 -167.306)" fill="#fff"/>
    <path id="Path_107" data-name="Path 107" d="M479.257,516.95l-18.114,6.86a1.138,1.138,0,0,1-1.475-.741,1.245,1.245,0,0,1,.7-1.565l18.114-6.86a1.137,1.137,0,0,1,1.477.737,1.246,1.246,0,0,1-.694,1.567Z" transform="translate(-407.214 -167.077)" fill="#fff"/>
    <path id="Path_108" data-name="Path 108" d="M477.484,511.985l-18.114,6.86a1.138,1.138,0,0,1-1.476-.74,1.246,1.246,0,0,1,.7-1.566h0l18.114-6.86a1.138,1.138,0,0,1,1.475.741,1.245,1.245,0,0,1-.7,1.565Z" transform="translate(-407.148 -167.182)" fill="#fff"/>
    <ellipse id="Ellipse_36" data-name="Ellipse 36" cx="4.812" cy="5.105" rx="4.812" ry="5.105" transform="translate(46.934 317.105)" fill="#ccc"/>
    <path id="Path_109" data-name="Path 109" d="M639.071,274.786c.077,7.474,2.319,23.035.712,30.355l-.26-.613a31.607,31.607,0,0,1-4.244,3.012,21.68,21.68,0,0,0-4.716-7.352,27.313,27.313,0,0,1-1.126,10.17c-6.015,2.3-16.572-4.942-23.116-5.095-10.528-.255-20.787-3.032-30.843-5.973-3.57-1.041-7.5-2.4-9.113-5.544s1.277-6.539,1.087-10.088c-1.349-25.276,10-29.513,20.8-36.267,2.376-1.486,3.541-4.687,6.226-5.932,3.724-1.726,8.161-.9,12.212-.031a6.417,6.417,0,0,1-4.08-4.738,6.083,6.083,0,0,1,2.175-5.718c2.233-1.828,5.562-2.052,8.411-1.276a27.482,27.482,0,0,1,7.718,4.023,15.54,15.54,0,0,1,4.234,3.635,4.724,4.724,0,0,1,.5,5.105,5.391,5.391,0,0,1-4.3,2.216,13.6,13.6,0,0,1-3.792-.419,28.6,28.6,0,0,1,14.7,9.434C637.07,259.644,638.985,267.312,639.071,274.786Z" transform="translate(-411.215 -173.079)" fill="#2f2e41"/>
    <path id="Path_110" data-name="Path 110" d="M467.1,344.657a8.61,8.61,0,0,0,11.511,4.579,8.335,8.335,0,0,0,1.219-.726l24.78,19.316,13.662-9.892-36.641-22.567a8.469,8.469,0,0,0-10.416-2.736,9.152,9.152,0,0,0-4.212,11.8h0Q467.052,344.547,467.1,344.657Z" transform="translate(-407.465 -170.921)" fill="#ffb6b6"/>
    <path id="Path_111" data-name="Path 111" d="M731.257,327.226a9.239,9.239,0,0,0-7.683,10.182,9.442,9.442,0,0,0,.271,1.455L698.833,357.84l4.611,16.853,31.613-29.927a9.377,9.377,0,0,0,5.691-9.652,8.548,8.548,0,0,0-9.263-7.919Q731.371,327.209,731.257,327.226Z" transform="translate(-416.221 -171.02)" fill="#ffb6b6"/>
    <path id="Path_112" data-name="Path 112" d="M138.442,534.6l-8.055-.072L126.823,500.8l11.887.106Z" transform="translate(-4.775 10.535)" fill="#ffb6b6"/>
    <path id="Path_113" data-name="Path 113" d="M517.254,721.828a3.725,3.725,0,0,0,3.57,3.854l16.014.142,2.8-6.029,1.03,6.06,6.042.058L545.187,704.3l-2.1-.148-8.575-.627-2.766-.2-.048,6.115L518.832,718.7A3.887,3.887,0,0,0,517.254,721.828Z" transform="translate(-409.385 -163.106)" fill="#2f2e41"/>
    <path id="Path_114" data-name="Path 114" d="M248.124,497.392l-6.576,4.934L220.08,477.163l9.705-7.283Z" transform="translate(-8.286 9.885)" fill="#ffb6b6"/>
    <path id="Path_115" data-name="Path 115" d="M640.38,698.175a3.475,3.475,0,0,0,5.02.915l13.074-9.812-1.045-6.631,4.173,4.28,4.936-3.7L653.4,666.634l-1.788,1.183-7.3,4.806-2.353,1.555,3.328,4.993-5.342,15.487a4.015,4.015,0,0,0,.442,3.516Z" transform="translate(-413.995 -163.878)" fill="#2f2e41"/>
    <path id="Path_116" data-name="Path 116" d="M145.174,267.262l23.4-57.643h53.888l-15.543,60.157Z" transform="translate(-5.465 4.41)" fill="#ffb6b6"/>
    <path id="Path_117" data-name="Path 117" d="M496.895,710.147a2.179,2.179,0,0,1-2.115-1.421,2.417,2.417,0,0,1,.532-2.6l.15-.631-.059-.151a5.741,5.741,0,0,0-10.818.043c-1.769,4.521-4.022,9.05-4.577,13.831a19.507,19.507,0,0,0,.3,6.331,77.611,77.611,0,0,1-6.328-30.653,75.523,75.523,0,0,1,.416-7.947q.345-3.245.957-6.443a76.756,76.756,0,0,1,13.954-31.642A19.4,19.4,0,0,0,497.1,640.3a15.805,15.805,0,0,0,1.3-4.141c-.379.053-1.43-6.074-1.144-6.45-.528-.851-1.474-1.274-2.051-2.1-2.87-4.128-6.824-3.408-8.888,2.2-4.41,2.361-4.452,6.277-1.747,10.044,1.721,2.4,1.958,5.638,3.468,8.2-.155.211-.317.416-.472.627a75.93,75.93,0,0,0-7.392,12.425,33,33,0,0,0-1.758-14.508c-1.682-4.306-4.836-7.933-7.613-11.655a5.849,5.849,0,0,0-6.373-2.24,6.308,6.308,0,0,0-4.39,5.388q-.008.082-.017.165.619.37,1.211.786a3.233,3.233,0,0,1,1.246,3.293,3.042,3.042,0,0,1-2.441,2.426l-.06.01a33.006,33.006,0,0,0,.777,4.676c-3.562,14.617,4.129,19.941,15.11,20.18.242.132.479.264.721.389a80.748,80.748,0,0,0-3.891,19.428,77.162,77.162,0,0,0,.05,11.745l-.019-.139a19.482,19.482,0,0,0-6.185-11.1c-4.759-4.148-11.484-5.676-16.618-9.01a3.236,3.236,0,0,0-3.66-.009,3.691,3.691,0,0,0-1.548,3.519l.021.146a19.418,19.418,0,0,1,2.231,1.141q.619.37,1.211.786a3.233,3.233,0,0,1,1.246,3.293,3.042,3.042,0,0,1-2.441,2.427l-.06.01-.124.02a31.6,31.6,0,0,0,5.426,9.015c2.227,12.76,11.795,13.971,22.028,10.255h.006a79.9,79.9,0,0,0,4.854,15.036H496.46c.062-.2.118-.415.174-.62a18.6,18.6,0,0,1-4.8-.3c1.287-1.675,2.573-3.364,3.86-5.038a1.147,1.147,0,0,0,.081-.1c.653-.857,1.312-1.708,1.964-2.565h0a32.4,32.4,0,0,0-.846-7.8Z" transform="translate(-406.653 -164.755)" fill="#f2f2f2"/>
    <path id="Path_118" data-name="Path 118" d="M693.873,710.147a2.18,2.18,0,0,0,2.115-1.421,2.417,2.417,0,0,0-.532-2.6l-.15-.631.06-.151a5.741,5.741,0,0,1,10.818.043c1.769,4.521,4.022,9.05,4.577,13.831a19.5,19.5,0,0,1-.3,6.331,77.61,77.61,0,0,0,6.328-30.652,75.5,75.5,0,0,0-.416-7.947q-.345-3.245-.957-6.443a76.757,76.757,0,0,0-13.954-31.641,19.4,19.4,0,0,1-7.788-8.573,15.8,15.8,0,0,1-1.3-4.141c.379.053,1.43-6.074,1.144-6.45.528-.851,1.474-1.274,2.051-2.1,2.87-4.129,6.824-3.408,8.888,2.2,4.41,2.361,4.452,6.277,1.747,10.044-1.721,2.4-1.958,5.638-3.468,8.2.155.211.317.416.472.627a75.93,75.93,0,0,1,7.392,12.425,33,33,0,0,1,1.758-14.508c1.682-4.306,4.836-7.933,7.613-11.655a5.849,5.849,0,0,1,6.372-2.24,6.308,6.308,0,0,1,4.39,5.388q.009.082.017.165-.619.37-1.211.786a3.233,3.233,0,0,0-1.247,3.293,3.042,3.042,0,0,0,2.441,2.426l.06.01a33.008,33.008,0,0,1-.777,4.676c3.562,14.617-4.129,19.941-15.11,20.18-.242.132-.479.264-.721.389a80.752,80.752,0,0,1,3.891,19.428,77.177,77.177,0,0,1-.05,11.745l.019-.138a19.481,19.481,0,0,1,6.185-11.1c4.759-4.148,11.484-5.676,16.618-9.01a3.236,3.236,0,0,1,3.66-.009,3.691,3.691,0,0,1,1.548,3.519l-.021.146a19.411,19.411,0,0,0-2.231,1.141q-.619.37-1.211.786a3.234,3.234,0,0,0-1.247,3.293,3.042,3.042,0,0,0,2.441,2.427l.06.01.124.02a31.6,31.6,0,0,1-5.426,9.015c-2.227,12.76-11.795,13.971-22.028,10.255H716.5a79.9,79.9,0,0,1-4.854,15.036H694.308c-.062-.2-.118-.415-.174-.62a18.592,18.592,0,0,0,4.8-.3c-1.287-1.675-2.573-3.364-3.86-5.038a1.136,1.136,0,0,1-.081-.1c-.653-.857-1.311-1.708-1.964-2.565h0a32.411,32.411,0,0,1,.846-7.8Z" transform="translate(-415.978 -164.755)" fill="#f2f2f2"/>
    <path id="Path_119" data-name="Path 119" d="M549.43,436.071,526.2,487.482,527.86,692.36h19.9s3.868-5.535,3.868-9.414-6.58-4.441-2.193-9.2,5.849-6.312,5.849-10.966V588.321l15.687-72.179-1.658,79.308,56.37,71.38L638.809,652.9s3.84-1.8,0-5.653-6.235,2.955-6.5-7.82,1.928-8.448-.265-10.775-32.893-41.21-32.893-41.21,27.776-125.561,13.885-149.607Z" transform="translate(-409.722 -168.729)" fill="#2f2e41"/>
    <path id="Path_120" data-name="Path 120" d="M615.453,444.534s-59.95-22.495-55.564-34.906,11.755-10.023,2.953-13.932-14.633-4.685-9.159-10.114,13.517-10.86,13.517-16.289,6.58-48.092,6.58-48.092h10.533l10.668-19.392h15.071l7.593,17.841h16.032l.783,27.149s1.036,52.447-3.869,54.536-9.291,2.089-4.9,6.743,6.885,7.061,4.9,11.287S615.453,444.534,615.453,444.534Z" transform="translate(-410.676 -171.553)" fill="#e6e6e6"/>
    <path id="Path_121" data-name="Path 121" d="M627.069,327.039l9.453-7.757s16.136,0,18.329,9.308,15.394,32.071,15.394,32.071,13.119-8.025,18.236-8.025,8.773,3.878,8.773-.776-2.924-5.43,1.462-5.43,16.084-4.654,16.084-4.654l12.478,13.239s-1.511,12.359-6.629,11.583-8.042-4.654-8.042,0,2.924,11.635-3.656,12.411-50.446,12.411-50.446,12.411L628.531,344.88Z" transform="translate(-413.519 -171.185)" fill="#e6e6e6"/>
    <path id="Path_122" data-name="Path 122" d="M583.645,327.039l-9.452-7.757s-16.136,0-18.329,9.308-16.13,32.071-16.13,32.071-12.382-8.025-17.5-8.025-8.773,3.878-8.773-.776,2.924-5.43-1.462-5.43-16.084-4.654-16.084-4.654l-12.478,13.238s1.511,12.359,6.629,11.583,8.042-4.654,8.042,0-2.924,11.635,3.655,12.411,50.446,12.411,50.446,12.411l29.975-46.541Z" transform="translate(-408.112 -171.185)" fill="#e6e6e6"/>
    <ellipse id="Ellipse_37" data-name="Ellipse 37" cx="23.331" cy="24.754" rx="23.331" ry="24.754" transform="translate(166.758 76.534)" fill="#ffb6b6"/>
    <path id="Path_123" data-name="Path 123" d="M627.133,270.442c-2.743,3.523-6.823,3.339-10.451,2.777-1.145-.174-2.29-.368-3.435-.592-.2-.684-.433-1.368-.693-2.032a21.677,21.677,0,0,0-4.716-7.351,26.937,26.937,0,0,1-.587,8.1q-3.19-.781-6.351-1.746a7.751,7.751,0,0,1-6.14-8.577c-3.031,2.45-6.332,4.574-9.8,4.615a9.258,9.258,0,0,1-8.565-7.076,24.74,24.74,0,0,1-.414-9.9c.462-3.931,1.5-8.25,4-9.833,2.011-1.286,4.331-.368,6.4.674a73.105,73.105,0,0,1,12.9,8.393l.048,1.072c1.039-5.279,4.475-9.353,8.218-9.761,2.521-.265,4.985.97,7.362,2.216a34.5,34.5,0,0,1,8.575,5.728,20.58,20.58,0,0,1,5.793,10.588C630.174,262.152,629.5,267.4,627.133,270.442Z" transform="translate(-411.585 -172.891)" fill="#2f2e41"/>
    <path id="Path_124" data-name="Path 124" d="M604.9,236.312c.239.021-.348-.122-.158-.037a1.878,1.878,0,0,1-.269-.16c-.015-.01-.2-.173-.08-.059a1.987,1.987,0,0,1-.619-.917,8.7,8.7,0,0,1-.365-2.727,9.1,9.1,0,0,0-.573-3.556,2.033,2.033,0,0,0-1.4-1.221,1.918,1.918,0,0,0-1.754.475c-.788.819-.85,2.2-.906,3.3a11.265,11.265,0,0,0,.338,3.393,9.821,9.821,0,0,0,2.808,4.679,9.322,9.322,0,0,0,5.558,2.49,1.462,1.462,0,0,0,1.314-.954,1.617,1.617,0,0,0-.293-1.66l-2.583-2.6a1.386,1.386,0,0,0-2.041,0,1.6,1.6,0,0,0,0,2.166l2.583,2.6,1.021-2.615a5.454,5.454,0,0,1-1.254-.272,4.7,4.7,0,0,1-1.253-.583,6,6,0,0,1-1.067-.791,8.477,8.477,0,0,1-.6-.619q-.1-.118-.2-.241c0,.006-.272-.362-.153-.194a8.77,8.77,0,0,1-.776-1.38,3.626,3.626,0,0,1-.19-.532,7.7,7.7,0,0,1-.323-2.888q.019-.419.079-.835a3.508,3.508,0,0,0,.081-.444c.005-.372-.048.2-.231.285l-.729.209a.786.786,0,0,1-.594-.369q-.046-.192.026.068a5.278,5.278,0,0,1,.127.619q.083.729.1,1.464a15.406,15.406,0,0,0,.339,3.08,4.76,4.76,0,0,0,4.039,3.883,1.5,1.5,0,0,0,1.444-1.532,1.52,1.52,0,0,0-1.443-1.532Z" transform="translate(-412.454 -173.114)" fill="#2f2e41"/>
    <path id="Path_125" data-name="Path 125" d="M728.459,334.577c-7.938-11.2-12.526-23.73-12.677-38.012a3.134,3.134,0,0,1,1.767-3.929l27.058-10.158a2.864,2.864,0,0,1,3.7,1.875l12.677,38.012a3.134,3.134,0,0,1-1.767,3.929l-27.058,10.158a2.864,2.864,0,0,1-3.7-1.875Z" transform="translate(-416.853 -171.963)" fill="#6c63ff"/>
    <path id="Path_126" data-name="Path 126" d="M734.568,333.691a2.864,2.864,0,0,1-3.7-1.875c-7.938-11.2-12.526-23.73-12.677-38.012a3.219,3.219,0,0,1-.106-1.576l-.532.2a3.134,3.134,0,0,0-1.767,3.929c.15,14.282,4.738,26.81,12.677,38.012a2.864,2.864,0,0,0,3.7,1.875l27.058-10.158a3.026,3.026,0,0,0,1.873-2.353Z" transform="translate(-416.853 -171.755)" opacity="0.2"/>
    <path id="Path_127" data-name="Path 127" d="M747.712,305.02,729.6,311.88a1.138,1.138,0,0,1-1.475-.742,1.246,1.246,0,0,1,.7-1.565l18.114-6.86a1.138,1.138,0,0,1,1.475.741,1.246,1.246,0,0,1-.7,1.565Z" transform="translate(-417.321 -171.535)" fill="#fff"/>
    <path id="Path_128" data-name="Path 128" d="M731.373,304.067l-3.985,1.509a1.138,1.138,0,0,1-1.476-.74,1.246,1.246,0,0,1,.7-1.566h0l3.985-1.509a1.138,1.138,0,0,1,1.475.741,1.245,1.245,0,0,1-.7,1.565Z" transform="translate(-417.238 -171.556)" fill="#fff"/>
    <path id="Path_129" data-name="Path 129" d="M751.257,314.95l-18.114,6.86a1.138,1.138,0,0,1-1.476-.74,1.246,1.246,0,0,1,.7-1.566h0l18.114-6.86a1.138,1.138,0,0,1,1.475.742,1.245,1.245,0,0,1-.7,1.565Z" transform="translate(-417.455 -171.327)" fill="#fff"/>
    <path id="Path_130" data-name="Path 130" d="M749.484,309.985l-18.114,6.86a1.138,1.138,0,0,1-1.476-.74,1.246,1.246,0,0,1,.7-1.566h0l18.114-6.86a1.138,1.138,0,0,1,1.476.74,1.246,1.246,0,0,1-.7,1.566Z" transform="translate(-417.388 -171.431)" fill="#fff"/>
    <ellipse id="Ellipse_38" data-name="Ellipse 38" cx="4.812" cy="5.105" rx="4.812" ry="5.105" transform="translate(308.694 110.856)" fill="#3f3d56"/>
    <path id="Path_131" data-name="Path 131" d="M484.011,206.725c4.846-13.038,12.509-23.74,23.9-31.348a2.792,2.792,0,0,1,4.08-.457l22.314,19.153a3.211,3.211,0,0,1,.431,4.329l-23.9,31.348a2.792,2.792,0,0,1-4.08.457l-22.313-19.153a3.211,3.211,0,0,1-.431-4.329Z" transform="translate(-408.109 -174.237)" fill="#6c63ff"/>
    <path id="Path_132" data-name="Path 132" d="M487.751,211.895a3.211,3.211,0,0,1-.431-4.329c4.846-13.038,12.509-23.74,23.9-31.348a2.879,2.879,0,0,1,1.21-.92l-.439-.377a2.792,2.792,0,0,0-4.08.457c-11.394,7.607-19.057,18.309-23.9,31.348a3.211,3.211,0,0,0,.431,4.329l22.314,19.152a2.759,2.759,0,0,0,2.87.463Z" transform="translate(-408.109 -174.237)" opacity="0.2"/>
    <path id="Path_133" data-name="Path 133" d="M517.959,208.076l-14.987-12.791a1.276,1.276,0,0,1-.176-1.721,1.11,1.11,0,0,1,1.622-.187l14.986,12.79a1.276,1.276,0,0,1,.176,1.721,1.11,1.11,0,0,1-1.622.187Z" transform="translate(-408.831 -173.84)" fill="#fff"/>
    <path id="Path_134" data-name="Path 134" d="M510.391,192.976l-3.3-2.814a1.276,1.276,0,0,1-.176-1.721,1.11,1.11,0,0,1,1.623-.187l3.3,2.814a1.276,1.276,0,0,1,.176,1.721,1.11,1.11,0,0,1-1.623.187Z" transform="translate(-408.986 -173.947)" fill="#fff"/>
    <path id="Path_135" data-name="Path 135" d="M511.35,216.291,496.363,203.5a1.276,1.276,0,0,1-.176-1.721,1.11,1.11,0,0,1,1.622-.187L512.8,214.383a1.276,1.276,0,0,1,.176,1.721,1.11,1.11,0,0,1-1.623.187Z" transform="translate(-408.582 -173.667)" fill="#fff"/>
    <path id="Path_136" data-name="Path 136" d="M514.654,212.184l-14.986-12.791a1.276,1.276,0,0,1-.18-1.721,1.11,1.11,0,0,1,1.622-.191l0,0,14.987,12.79a1.276,1.276,0,0,1,.18,1.721,1.11,1.11,0,0,1-1.622.191l0,0Z" transform="translate(-408.706 -173.753)" fill="#fff"/>
    <ellipse id="Ellipse_39" data-name="Ellipse 39" cx="4.812" cy="5.105" rx="4.812" ry="5.105" transform="translate(109.559 4.695)" fill="#3f3d56"/>
    <path id="Path_137" data-name="Path 137" d="M425.94,357.13c-11.742-16.569-18.528-35.1-18.75-56.225a4.635,4.635,0,0,1,2.614-5.811l40.022-15.024a4.237,4.237,0,0,1,5.477,2.774l18.751,56.226a4.635,4.635,0,0,1-2.614,5.811L431.417,359.9A4.237,4.237,0,0,1,425.94,357.13Z" transform="translate(-405.232 -172.016)" fill="#6c63ff"/>
    <path id="Path_138" data-name="Path 138" d="M434.975,355.82a4.237,4.237,0,0,1-5.477-2.774c-11.741-16.57-18.528-35.1-18.75-56.226a4.761,4.761,0,0,1-.157-2.331l-.788.3a4.635,4.635,0,0,0-2.614,5.811c.222,21.125,7.009,39.655,18.751,56.226a4.237,4.237,0,0,0,5.477,2.774L471.44,344.57a4.475,4.475,0,0,0,2.771-3.48Z" transform="translate(-405.232 -171.707)" opacity="0.2"/>
    <path id="Path_139" data-name="Path 139" d="M454.419,313.411l-26.793,10.147a1.683,1.683,0,0,1-2.181-1.1,1.842,1.842,0,0,1,1.034-2.315L453.271,310a1.683,1.683,0,0,1,2.181,1.1,1.842,1.842,0,0,1-1.034,2.314Z" transform="translate(-405.925 -171.383)" fill="#fff"/>
    <path id="Path_140" data-name="Path 140" d="M430.25,312l-5.895,2.232a1.683,1.683,0,0,1-2.181-1.1,1.842,1.842,0,0,1,1.034-2.314h0l5.895-2.232a1.683,1.683,0,0,1,2.181,1.1A1.842,1.842,0,0,1,430.25,312Z" transform="translate(-405.802 -171.413)" fill="#fff"/>
    <path id="Path_141" data-name="Path 141" d="M459.662,328.1l-26.793,10.147a1.683,1.683,0,0,1-2.181-1.1,1.842,1.842,0,0,1,1.034-2.314h0l26.793-10.147a1.683,1.683,0,0,1,2.181,1.1,1.842,1.842,0,0,1-1.034,2.314Z" transform="translate(-406.122 -171.074)" fill="#fff"/>
    <path id="Path_142" data-name="Path 142" d="M457.04,320.755,430.246,330.9a1.683,1.683,0,0,1-2.181-1.1,1.842,1.842,0,0,1,1.034-2.315h0l26.793-10.147a1.683,1.683,0,0,1,2.181,1.1A1.842,1.842,0,0,1,457.04,320.755Z" transform="translate(-406.023 -171.228)" fill="#fff"/>
    <ellipse id="Ellipse_40" data-name="Ellipse 40" cx="7.117" cy="7.551" rx="7.117" ry="7.551" transform="translate(16.4 108.557)" fill="#3f3d56"/>
    <path id="Path_143" data-name="Path 143" d="M699.628,624c-13.21-.071-25.387-3.774-36.2-12.287a3.123,3.123,0,0,1-1.879-3.87l8.746-29a2.874,2.874,0,0,1,3.647-1.994l36.2,12.287a3.123,3.123,0,0,1,1.879,3.87l-8.746,29A2.874,2.874,0,0,1,699.628,624Z" transform="translate(-414.812 -165.77)" fill="#f2f2f2"/>
    <path id="Path_144" data-name="Path 144" d="M702.815,618.153a2.874,2.874,0,0,1-3.647,1.994c-13.21-.071-25.387-3.774-36.2-12.287a2.858,2.858,0,0,1-1.247-.864l-.172.571a3.123,3.123,0,0,0,1.879,3.87c10.81,8.513,22.987,12.216,36.2,12.287a2.875,2.875,0,0,0,3.647-1.994l8.746-29a3.207,3.207,0,0,0-.632-3.006Z" transform="translate(-414.812 -165.496)" opacity="0.2"/>
    <path id="Path_145" data-name="Path 145" d="M689.9,590.253l-5.81,19.453a1.143,1.143,0,0,1-1.446.8,1.24,1.24,0,0,1-.757-1.534l0-.01,5.81-19.453a1.143,1.143,0,0,1,1.449-.8A1.24,1.24,0,0,1,689.9,590.253Z" transform="translate(-415.581 -165.519)" fill="#fff"/>
    <path id="Path_146" data-name="Path 146" d="M679.1,603.128l-1.278,4.28a1.143,1.143,0,0,1-1.446.8,1.24,1.24,0,0,1-.757-1.534l0-.01,1.278-4.28a1.143,1.143,0,0,1,1.446-.8,1.24,1.24,0,0,1,.757,1.534Z" transform="translate(-415.345 -165.248)" fill="#fff"/>
    <path id="Path_147" data-name="Path 147" d="M699.952,593.439l-5.81,19.453a1.143,1.143,0,0,1-1.446.8,1.24,1.24,0,0,1-.757-1.534l0-.009,5.81-19.453a1.143,1.143,0,0,1,1.446-.8,1.24,1.24,0,0,1,.757,1.534Z" transform="translate(-415.959 -165.452)" fill="#fff"/>
    <path id="Path_148" data-name="Path 148" d="M694.926,591.846l-5.81,19.453a1.143,1.143,0,0,1-1.446.8,1.24,1.24,0,0,1-.757-1.534l0-.009,5.81-19.453a1.143,1.143,0,0,1,1.446-.8,1.24,1.24,0,0,1,.757,1.534Z" transform="translate(-415.77 -165.485)" fill="#fff"/>
    <ellipse id="Ellipse_41" data-name="Ellipse 41" cx="4.812" cy="5.105" rx="4.812" ry="5.105" transform="translate(246.141 423.293)" fill="#ccc"/>
    <path id="Path_155" data-name="Path 155" d="M3.7-.023C5.728-.051,7.337,2.165,7.3,4.927S5.584,9.949,3.56,9.977-.072,7.789-.032,5.028,1.681,0,3.7-.023Z" transform="translate(346.335 230.064) rotate(-75.779)" fill="#fff"/>
    <path id="Path_156" data-name="Path 156" d="M3.7-.023C5.728-.051,7.337,2.165,7.3,4.927S5.584,9.949,3.56,9.977-.072,7.789-.032,5.028,1.681,0,3.7-.023Z" transform="translate(313.765 229.842) rotate(-75.779)" fill="#3f3d56"/>
    <path id="Path_157" data-name="Path 157" d="M3.7-.023C5.728-.051,7.337,2.165,7.3,4.927S5.584,9.949,3.56,9.977-.072,7.789-.032,5.028,1.681,0,3.7-.023Z" transform="translate(352.447 258.733) rotate(-75.779)" fill="#ff6584"/>
    <path id="Path_158" data-name="Path 158" d="M3.346-.01C5.19-.021,6.678.951,6.67,2.161S5.16,4.362,3.317,4.374-.015,3.414-.006,2.2,1.5,0,3.346-.01Z" transform="translate(365.871 271.354) rotate(-83.624)" fill="#e6e6e6"/>
    <path id="Path_159" data-name="Path 159" d="M3.346-.01C5.19-.021,6.678.951,6.67,2.161S5.16,4.362,3.317,4.374-.015,3.414-.006,2.2,1.5,0,3.346-.01Z" transform="translate(368.549 293.008) rotate(-83.624)" fill="#3f3d56"/>
    <path id="Path_160" data-name="Path 160" d="M3.346-.01C5.19-.021,6.678.951,6.67,2.161S5.16,4.362,3.317,4.374-.015,3.414-.006,2.2,1.5,0,3.346-.01Z" transform="translate(335.251 251.741) rotate(-83.624)" fill="#e6e6e6"/>
    <path id="Path_161" data-name="Path 161" d="M3.346-.01C5.19-.021,6.678.951,6.67,2.161S5.16,4.362,3.317,4.374-.015,3.414-.006,2.2,1.5,0,3.346-.01Z" transform="translate(351.642 245.208) rotate(-83.624)" fill="#ff6584"/>
    <path id="Path_162" data-name="Path 162" d="M3.346-.01C5.19-.021,6.678.951,6.67,2.161S5.16,4.362,3.317,4.374-.015,3.414-.006,2.2,1.5,0,3.346-.01Z" transform="translate(331.449 227.557) rotate(-83.624)" fill="#3f3d56"/>
    <path id="Path_163" data-name="Path 163" d="M3.7-.023C5.728-.051,7.337,2.165,7.3,4.927S5.584,9.949,3.56,9.977-.072,7.789-.032,5.028,1.681,0,3.7-.023Z" transform="translate(42.231 217.813) rotate(-75.779)" fill="#fff"/>
    <path id="Path_164" data-name="Path 164" d="M3.7-.023C5.728-.051,7.337,2.165,7.3,4.927S5.584,9.949,3.56,9.977-.072,7.789-.032,5.028,1.681,0,3.7-.023Z" transform="translate(9.661 217.591) rotate(-75.779)" fill="#3f3d56"/>
    <path id="Path_165" data-name="Path 165" d="M3.7-.023C5.728-.051,7.337,2.165,7.3,4.927S5.584,9.949,3.56,9.977-.072,7.789-.032,5.028,1.681,0,3.7-.023Z" transform="translate(48.343 246.482) rotate(-75.779)" fill="#ff6584"/>
    <path id="Path_166" data-name="Path 166" d="M3.346-.01C5.19-.021,6.678.951,6.67,2.161S5.16,4.362,3.317,4.374-.015,3.414-.006,2.2,1.5,0,3.346-.01Z" transform="translate(61.766 259.103) rotate(-83.624)" fill="#e6e6e6"/>
    <path id="Path_167" data-name="Path 167" d="M3.346-.01C5.19-.021,6.678.951,6.67,2.161S5.16,4.362,3.317,4.374-.015,3.414-.006,2.2,1.5,0,3.346-.01Z" transform="translate(64.445 280.757) rotate(-83.624)" fill="#3f3d56"/>
    <path id="Path_168" data-name="Path 168" d="M3.346-.01C5.19-.021,6.678.951,6.67,2.161S5.16,4.362,3.317,4.374-.015,3.414-.006,2.2,1.5,0,3.346-.01Z" transform="translate(31.147 239.49) rotate(-83.624)" fill="#e6e6e6"/>
    <path id="Path_169" data-name="Path 169" d="M3.346-.01C5.19-.021,6.678.951,6.67,2.161S5.16,4.362,3.317,4.374-.015,3.414-.006,2.2,1.5,0,3.346-.01Z" transform="translate(47.538 232.957) rotate(-83.624)" fill="#ff6584"/>
    <path id="Path_170" data-name="Path 170" d="M3.346-.01C5.19-.021,6.678.951,6.67,2.161S5.16,4.362,3.317,4.374-.015,3.414-.006,2.2,1.5,0,3.346-.01Z" transform="translate(27.345 215.306) rotate(-83.624)" fill="#3f3d56"/>
    <path id="Path_149" data-name="Path 149" d="M675.459,483.577c-7.938-11.2-12.526-23.73-12.677-38.012a3.134,3.134,0,0,1,1.767-3.929l27.058-10.158a2.864,2.864,0,0,1,3.7,1.875l12.677,38.012a3.134,3.134,0,0,1-1.767,3.929l-27.058,10.158a2.864,2.864,0,0,1-3.7-1.875Z" transform="translate(-414.857 -168.829)" fill="#f2f2f2"/>
    <path id="Path_150" data-name="Path 150" d="M681.568,482.691a2.864,2.864,0,0,1-3.7-1.875c-7.938-11.2-12.526-23.73-12.677-38.012a3.218,3.218,0,0,1-.106-1.576l-.533.2a3.134,3.134,0,0,0-1.767,3.929c.15,14.282,4.739,26.81,12.677,38.012a2.864,2.864,0,0,0,3.7,1.875l27.058-10.158a3.026,3.026,0,0,0,1.873-2.353Z" transform="translate(-414.857 -168.62)" opacity="0.2"/>
    <path id="Path_151" data-name="Path 151" d="M694.712,454.02,676.6,460.88a1.138,1.138,0,0,1-1.475-.742,1.246,1.246,0,0,1,.7-1.565l18.114-6.86a1.138,1.138,0,0,1,1.475.741A1.245,1.245,0,0,1,694.712,454.02Z" transform="translate(-415.326 -168.401)" fill="#fff"/>
    <path id="Path_152" data-name="Path 152" d="M678.373,453.067l-3.985,1.509a1.138,1.138,0,0,1-1.476-.74,1.246,1.246,0,0,1,.7-1.566h0l3.985-1.509a1.138,1.138,0,0,1,1.475.741,1.245,1.245,0,0,1-.7,1.565Z" transform="translate(-415.243 -168.421)" fill="#fff"/>
    <path id="Path_153" data-name="Path 153" d="M698.257,463.95l-18.114,6.86a1.138,1.138,0,0,1-1.476-.74,1.246,1.246,0,0,1,.7-1.566h0l18.114-6.86a1.138,1.138,0,0,1,1.475.741,1.246,1.246,0,0,1-.7,1.565Z" transform="translate(-415.459 -168.192)" fill="#fff"/>
    <path id="Path_154" data-name="Path 154" d="M696.484,458.985l-18.114,6.86a1.138,1.138,0,0,1-1.476-.74,1.246,1.246,0,0,1,.7-1.566h0l18.114-6.86a1.137,1.137,0,0,1,1.476.74,1.246,1.246,0,0,1-.7,1.566Z" transform="translate(-415.392 -168.297)" fill="#fff"/>
    <ellipse id="Ellipse_58" data-name="Ellipse 58" cx="4.812" cy="5.105" rx="4.812" ry="5.105" transform="translate(257.689 262.99)" fill="#ccc"/>
  </g>
</svg>
